<svg xmlns="http://www.w3.org/2000/svg" width="204" height="32" viewBox="0 0 204 32"><defs><style>.a{fill:rgba(255,255,255,0.87);}.b,.d{fill:#fff;}.c,.f{fill:none;}.c{stroke:#fff;}.d{font-size:12px;font-family:Inter-Bold, Inter;font-weight:700;letter-spacing:0.24em;}.e{stroke:none;}</style></defs><g transform="translate(-38 -28)"><g transform="translate(38 28)"><g transform="translate(0)"><path class="a" d="M94.772,26.556a7.086,7.086,0,0,1-1.751,1.8,15.89,15.89,0,0,1-11.2,3.611,16.217,16.217,0,0,1-3.514-.608l-.121-.06c-.417-.942-.835-1.89-1.252-2.805q-1.1-2.531-2.246-5.057l-1.878-4.2-2.158-4.882c-.549-1.255-1.1-2.52-1.68-3.769-.214-.46-.34-.877-.642-1.408V9.139c.181-.329.269-.548.423-.805A15.978,15.978,0,0,1,77.093,1.1,15.615,15.615,0,0,1,81.535.066c.066,0,.154.033.187-.066h2.125c0,.066.077.06.132.066a15.442,15.442,0,0,1,3.234.548,16.089,16.089,0,0,1,7.017,4.131c.187.186.159.285,0,.455-.988.981-1.966,1.967-2.948,2.953l-5.1,5.128a1.055,1.055,0,0,1-.137-.066,3.839,3.839,0,1,0-1.164,6.668,4.519,4.519,0,0,0,1.746-1.151.368.368,0,0,1,.077.049l5,4.778,3.069,2.893Z" transform="translate(-30.772)"/><path class="a" d="M49.96,10.244v.038a15.454,15.454,0,0,0-1.543,6.837,15.664,15.664,0,0,0,.62,4.383,16.09,16.09,0,0,0,8.906,10.234,7.8,7.8,0,0,0,1.878.657c.082.2.225.581.225.581H52.387a1.875,1.875,0,0,1-.813-.247Q46.353,30.372,41.143,28c-1.224-.548-2.454-1.1-3.668-1.644-.253-.115-.318-.044-.412.175-.857,2.109-1.724,4.213-2.586,6.322a.285.285,0,0,1-.3.214c-2.125-.027-4.244-.044-6.363-.06-.34,0-.165-.181-.115-.3q1.856-4.421,3.712-8.831a1.7,1.7,0,0,1,.126-.247,4.7,4.7,0,0,0,.483,0,12.28,12.28,0,0,0,4.392-1.4,9.625,9.625,0,0,0,3.031-2.569,10.738,10.738,0,0,0,2.048-6.234,11.786,11.786,0,0,0-.115-1.813,10.618,10.618,0,0,0-1.395-4.18,5.479,5.479,0,0,0-1.049-1.4V5.949c.467-1.1.939-2.164,1.389-3.254a.34.34,0,0,1,.373-.257h5.556a.346.346,0,0,1,.368.263C47.715,5.2,48.851,7.746,49.96,10.244Zm-6.473,1.9c-.082.181-.143.279-.187.389q-1.548,3.731-3.108,7.462c-.077.192-.077.279.148.378q3.624,1.5,7.247,3a5.086,5.086,0,0,0,1.224.438Z" transform="translate(-12.43 -1.098)"/><path class="a" d="M29.952,6.126v.082c-.467,1.1-.939,2.191-1.4,3.287q-1.5,3.583-3.014,7.166c-.752,1.8-1.515,3.588-2.273,5.391-.242.548-.467,1.161-.7,1.748a.084.084,0,0,1-.044.071h-7.44c-.329,0-.417.1-.412.416.027,2.81.027,5.621.06,8.431,0,.329-.093.394-.406.394H8.089c-.329,0-.379-.1-.379-.394V18.1h8.005c.428,0,.428,0,.428-.438V9.533c0-.433,0-.433-.434-.433h-8V3.173c0-.274.088-.34.351-.34H20.234a20.987,20.987,0,0,1,3.8.241,10.315,10.315,0,0,1,5.589,2.739A2.206,2.206,0,0,0,29.952,6.126ZM16.187,13.543h0v4.383c0,.252.071.334.324.329H20.9a6.988,6.988,0,0,0,1.751-.2,4.352,4.352,0,0,0,3.053-6.125,4.6,4.6,0,0,0-4.244-2.925c-1.647-.11-3.294-.033-4.98-.06-.236,0-.269.088-.269.3C16.193,10.656,16.187,12.1,16.187,13.543Z" transform="translate(-3.477 -1.274)"/><path class="b" d="M4.244,14.265h8.027c.434,0,.434,0,.434.434v8.137c0,.439,0,.439-.428.439H.324c-.253,0-.324-.06-.324-.318V14.578c0-.247.06-.324.318-.318C1.647,14.276,2.937,14.265,4.244,14.265Z" transform="translate(0 -6.453)"/><path class="b" d="M76.9,38.888a7.786,7.786,0,0,1-1.878-.659,16.043,16.043,0,0,1-8.159-21.182c.055-.115.115-.236.17-.357a6.677,6.677,0,0,1,.642,1.411c.577,1.252,1.1,2.52,1.68,3.777l2.158,4.892,1.878,4.211q1.158,2.537,2.257,5.1C76.064,36.994,76.481,37.944,76.9,38.888Z" transform="translate(-29.498 -7.594)"/><path class="b" d="M95.609,23.518c0,.038,0,.093.038.115a3.843,3.843,0,0,1,.494,5.178.829.829,0,0,0-.088.17,4.519,4.519,0,0,1-1.746,1.153,3.843,3.843,0,1,1,1.164-6.682A1.054,1.054,0,0,0,95.609,23.518Z" transform="translate(-40.213 -10.244)"/><path class="b" d="M34.69,26.631c.236-.582.505-1.246.747-1.823.758-1.806,1.521-3.6,2.273-5.4q1.543-3.591,3.014-7.165c.461-1.1.933-2.268,1.395-3.36a5.973,5.973,0,0,1,1.054,1.455,10.657,10.657,0,0,1,1.395,4.189,11.837,11.837,0,0,1,.115,1.817,10.778,10.778,0,0,1-2.048,6.248A9.63,9.63,0,0,1,39.6,25.165a12.024,12.024,0,0,1-4.332,1.422C35.113,26.587,34.86,26.631,34.69,26.631Z" transform="translate(-15.629 -4.027)"/></g></g><g transform="translate(126 36.767)"><g class="c" transform="translate(-8 -3.767)"><rect class="e" width="124" height="23" rx="11.5"/><rect class="f" x="0.5" y="0.5" width="123" height="22" rx="11"/></g><text class="d" transform="translate(54 12.233)"><tspan x="-45.549" y="0">SYS ADMIN</tspan></text></g></g></svg>