<svg xmlns="http://www.w3.org/2000/svg" xmlns:xlink="http://www.w3.org/1999/xlink" width="1em" height="1em" preserveAspectRatio="xMidYMid meet" viewBox="0 0 24 24" style="-ms-transform: rotate(360deg); -webkit-transform: rotate(360deg); transform: rotate(360deg);"><path d="M5 5.5v2a2 2 0 1 0 4 0v-2h6v2a2 2 0 1 0 4 0v-2a3 3 0 0 1 3 3v2H2v-2a3 3 0 0 1 3-3zm17 7v6a3 3 0 0 1-3 3H5a3 3 0 0 1-3-3v-6h20zm-5-10a1 1 0 0 1 1 1v4a1 1 0 0 1-2 0v-4a1 1 0 0 1 1-1zm-10 0a1 1 0 0 1 1 1v4a1 1 0 1 1-2 0v-4a1 1 0 0 1 1-1z" fill="#053364"/></svg>
